<svg width="18" height="18" viewBox="0 0 18 18" fill="none" xmlns="http://www.w3.org/2000/svg">
<path d="M8.99996 17.9583C4.05996 17.9583 0.041626 13.94 0.041626 9.00001C0.041626 4.06001 4.05996 0.0416718 8.99996 0.0416718C13.94 0.0416718 17.9583 4.06001 17.9583 9.00001C17.9583 13.94 13.94 17.9583 8.99996 17.9583ZM8.99996 1.29167C4.74996 1.29167 1.29163 4.75001 1.29163 9.00001C1.29163 13.25 4.74996 16.7083 8.99996 16.7083C13.25 16.7083 16.7083 13.25 16.7083 9.00001C16.7083 4.75001 13.25 1.29167 8.99996 1.29167Z" fill="#1D9BF0"/>
<path d="M8.99992 13.2625C7.42326 13.2625 5.97242 12.4708 5.11992 11.1425C4.93326 10.8525 5.01742 10.4675 5.30826 10.28C5.59826 10.0917 5.98492 10.1767 6.17159 10.4683C6.79409 11.4367 7.85159 12.0142 9.00076 12.0142C10.1499 12.0142 11.2074 11.4367 11.8308 10.4692C12.0174 10.1775 12.4041 10.0942 12.6941 10.2817C12.9858 10.4683 13.0691 10.855 12.8824 11.145C12.0283 12.4733 10.5774 13.2658 9.00076 13.2658L8.99992 13.2625Z" fill="#1D9BF0"/>
<path d="M11.2816 8.11334C11.9618 8.11334 12.5133 7.56191 12.5133 6.88168C12.5133 6.20145 11.9618 5.65001 11.2816 5.65001C10.6014 5.65001 10.0499 6.20145 10.0499 6.88168C10.0499 7.56191 10.6014 8.11334 11.2816 8.11334Z" fill="#1D9BF0"/>
<path d="M6.71824 8.11334C7.39847 8.11334 7.94991 7.56191 7.94991 6.88168C7.94991 6.20145 7.39847 5.65001 6.71824 5.65001C6.03801 5.65001 5.48657 6.20145 5.48657 6.88168C5.48657 7.56191 6.03801 8.11334 6.71824 8.11334Z" fill="#1D9BF0"/>
</svg>
